<svg width="179" height="179" viewBox="0 0 179 179" fill="none" xmlns="http://www.w3.org/2000/svg">
<path d="M129.146 91.7361L72.1764 129.716C71.7717 129.985 71.3015 130.14 70.8159 130.163C70.3303 130.186 69.8476 130.077 69.419 129.848C68.9904 129.618 68.6321 129.277 68.3822 128.86C68.1324 128.443 68.0003 127.966 68 127.48V51.5203C68.0003 51.0342 68.1324 50.5573 68.3822 50.1403C68.6321 49.7233 68.9904 49.3819 69.419 49.1524C69.8476 48.923 70.3303 48.8141 70.8159 48.8373C71.3015 48.8605 71.7717 49.015 72.1764 49.2843L129.146 87.2641C129.514 87.5095 129.816 87.842 130.025 88.2321C130.233 88.6221 130.343 89.0577 130.343 89.5001C130.343 89.9425 130.233 90.378 130.025 90.7681C129.816 91.1582 129.514 91.4907 129.146 91.7361Z" fill="#FCBD17"/>
<path opacity="0.5" d="M89.5 179C138.929 179 179 138.929 179 89.5C179 40.0705 138.929 0 89.5 0C40.0705 0 0 40.0705 0 89.5C0 138.929 40.0705 179 89.5 179Z" fill="#FED372"/>
</svg>
